<svg xmlns="http://www.w3.org/2000/svg" width="48" height="48" viewBox="0 0 48 48">
  <defs>
    <linearGradient id="paper" x1="0" y1="0" x2="1" y2="1">
      <stop stop-color="#ffffff"/>
      <stop offset=".6" stop-color="#fafcff"/>
      <stop offset="1" stop-color="#dce5f2"/>
    </linearGradient>
    <linearGradient id="badge" x1="0" y1="0" x2="0" y2="1">
      <stop stop-color="#ec514b"/>
      <stop offset="1" stop-color="#b62222"/>
    </linearGradient>
  </defs>
  <path d="M11 3h22l9 9v34H11z" fill="#294569" opacity=".2"/>
  <path d="M9.5 1.5h22l9 9v34h-31z" fill="url(#paper)" stroke="#7c8ea7" stroke-linejoin="round"/>
  <path d="M11 3h19v9h9v31H11z" fill="none" stroke="#fff"/>
  <path d="M31.5 1.5v9h9" fill="#d8e3f1" stroke="#7c8ea7" stroke-linejoin="round"/>
  <path d="M33 4.5V9h4.5" fill="none" stroke="#fff"/>
  <path d="M17 28c4-5 9-17 6-17-3 0 0 11 5 14 7 4 10-2 4-2-6 0-17 3-18 6-1 3 3 2 6-3" fill="none" stroke="#ce342c" stroke-width="1.8" stroke-linecap="round" stroke-linejoin="round"/>
  <rect x="5.5" y="31.5" width="34" height="13" rx="1" fill="url(#badge)" stroke="#9f2924"/>
  <path d="M7 33h31" fill="none" stroke="#ff8b7e"/>
  <g fill="none" stroke="#fff" stroke-width="1.7" stroke-linejoin="round">
    <path d="M12 42v-7h3a2 2 0 0 1 0 4h-3"/>
    <path d="M21 35v7h2a3.5 3.5 0 0 0 0-7z"/>
    <path d="M30 42v-7h5m-5 3.5h4"/>
  </g>
</svg>
