<svg xmlns="http://www.w3.org/2000/svg" width="80" height="88" viewBox="0 0 80 88">
  <defs>
    <linearGradient id="paper" x1="0" y1="0" x2=".7" y2="1">
      <stop stop-color="#fff"/>
      <stop offset=".55" stop-color="#fcfdff"/>
      <stop offset="1" stop-color="#e3ebf7"/>
    </linearGradient>
    <linearGradient id="blue" x1=".2" y1="0" x2=".7" y2="1">
      <stop stop-color="#006ec9"/>
      <stop offset=".23" stop-color="#28c2fa"/>
      <stop offset=".5" stop-color="#009af4"/>
      <stop offset=".78" stop-color="#087cf0"/>
      <stop offset="1" stop-color="#0545b8"/>
    </linearGradient>
    <linearGradient id="gold" x1="0" y1="1" x2="1" y2="0">
      <stop stop-color="#f4b416"/>
      <stop offset=".3" stop-color="#fff39d"/>
      <stop offset=".56" stop-color="#ffdc45"/>
      <stop offset="1" stop-color="#ffbb13"/>
    </linearGradient>
    <clipPath id="orbit-back">
      <path d="M0 0H80V88H0Z M64.5 44.5C64.5 32 55.5 23.5 42 23.5C28.5 23.5 19.5 32 19.5 44.5C19.5 57 28.5 65.5 42 65.5C55.5 65.5 64.5 57 64.5 44.5Z" clip-rule="evenodd"/>
    </clipPath>
  </defs>
  <path d="M16 5h44l15 15v61H16z" fill="#8195ad" opacity=".2"/>
  <path d="M15 4h44l15 15v61H15z" fill="url(#paper)" stroke="#8798ae" stroke-width=".9" stroke-linejoin="round"/>
  <path d="M16.5 5.5h41v15h15v58h-56z" fill="none" stroke="#fff"/>
  <path d="M59 4v15h15" fill="#edf2f9" stroke="#8798ae" stroke-width=".9" stroke-linejoin="round"/>
  <path d="M60.5 7v10.5H71" fill="none" stroke="#fff"/>

  <!-- One orbit is drawn behind the e, with its near edge repeated in front. -->
  <g clip-path="url(#orbit-back)">
    <path d="M27 65C12 71 16 56 31 38C45 21 62 15 64 22C69 32 41 63 27 65Z" fill="none" stroke="#c38400" stroke-width="2.7"/>
    <path d="M27 65C12 71 16 56 31 38C45 21 62 15 64 22C69 32 41 63 27 65Z" fill="none" stroke="url(#gold)" stroke-width="1.6"/>
  </g>

  <path d="M64 46H33C33.5 52 36.8 55.5 42.4 55.5C46.5 55.5 49.5 53.8 51.2 50.5H63C59.7 60.1 51.8 65 41.8 65C28.8 65 20 56.8 20 44.8C20 32.9 29 24 41.8 24C55.5 24 64 32.5 64 44.8ZM33 39.2H51C50.3 33.6 47.1 30.7 42 30.7C37.1 30.7 33.8 33.8 33 39.2Z" fill="url(#blue)" fill-rule="evenodd" stroke="#0066b9" stroke-width=".6"/>
  <path d="M23.7 36.9C26.7 30 33.1 26.1 41.4 25.5" fill="none" stroke="#68d5ff" stroke-width=".8" opacity=".85"/>

  <path d="M27 65C12 71 16 56 31 38C45 21 62 15 64 22" fill="none" stroke="#c38400" stroke-width="2.7" stroke-linecap="round"/>
  <path d="M27 65C12 71 16 56 31 38C45 21 62 15 64 22" fill="none" stroke="url(#gold)" stroke-width="1.6" stroke-linecap="round"/>

  <rect x="10" y="63" width="17" height="18" fill="#fff" stroke="#41536e" stroke-width="1"/>
  <path d="M13.2 77.7L16 80C16.4 76.1 18.2 73.5 21 71.5L23.5 74V66.5H16L18.4 68.8C15.5 71.2 13.6 74.1 13.2 77.7Z" fill="#071d48"/>
</svg>
